REM DIRINDEX 1\5,1\2\6,1\2\7,1\3\8,1\3\9,1\4\10,1\4\11,1\4\12
REM DIRNAME folder01,folder02,folder03,folder04,folder05,folder06,folder07,folder08,folder09,folder10,folder11,folder12
TITLE ""
FILE "EJ_DB3000_5th_6C_47.mp3" MP3
  TRACK 01 AUDIO
    TITLE "0:"
    INDEX 01 00:00:00
  TRACK 02 AUDIO
    TITLE "9:cjc026_06819"
    INDEX 01 00:00:05
  TRACK 03 AUDIO
    TITLE "0:"
    INDEX 01 00:01:34
  TRACK 04 AUDIO
    TITLE "8:cjc026_06820"
    INDEX 01 00:01:58
  TRACK 05 AUDIO
    TITLE "0:"
    INDEX 01 00:02:73
  TRACK 06 AUDIO
    TITLE "9:cjc026_06821"
    INDEX 01 00:03:21
  TRACK 07 AUDIO
    TITLE "0:"
    INDEX 01 00:05:07
  TRACK 08 AUDIO
    TITLE "8:cjc026_06822"
    INDEX 01 00:05:30
  TRACK 09 AUDIO
    TITLE "0:"
    INDEX 01 00:06:65
  TRACK 10 AUDIO
    TITLE "9:cjc026_06823"
    INDEX 01 00:07:13
  TRACK 11 AUDIO
    TITLE "0:"
    INDEX 01 00:08:15
  TRACK 12 AUDIO
    TITLE "8:cjc026_06824"
    INDEX 01 00:08:38
  TRACK 13 AUDIO
    TITLE "0:"
    INDEX 01 00:10:08
  TRACK 14 AUDIO
    TITLE "9:cjc026_06825"
    INDEX 01 00:10:31
  TRACK 15 AUDIO
    TITLE "0:"
    INDEX 01 00:11:35
  TRACK 16 AUDIO
    TITLE "8:cjc026_06826"
    INDEX 01 00:11:58
  TRACK 17 AUDIO
    TITLE "0:"
    INDEX 01 00:12:71
  TRACK 18 AUDIO
    TITLE "9:cjc026_06827"
    INDEX 01 00:13:22
  TRACK 19 AUDIO
    TITLE "0:"
    INDEX 01 00:14:31
  TRACK 20 AUDIO
    TITLE "8:cjc026_06828"
    INDEX 01 00:14:54
  TRACK 21 AUDIO
    TITLE "0:"
    INDEX 01 00:15:58
  TRACK 22 AUDIO
    TITLE "9:cjc026_06829"
    INDEX 01 00:16:08
  TRACK 23 AUDIO
    TITLE "0:"
    INDEX 01 00:17:06
  TRACK 24 AUDIO
    TITLE "8:cjc026_06830"
    INDEX 01 00:17:29
  TRACK 25 AUDIO
    TITLE "0:"
    INDEX 01 00:18:33
  TRACK 26 AUDIO
    TITLE "9:cjc026_06831"
    INDEX 01 00:18:56
  TRACK 27 AUDIO
    TITLE "0:"
    INDEX 01 00:19:54
  TRACK 28 AUDIO
    TITLE "8:cjc026_06832"
    INDEX 01 00:20:04
  TRACK 29 AUDIO
    TITLE "0:"
    INDEX 01 00:21:21
  TRACK 30 AUDIO
    TITLE "9:cjc026_06833"
    INDEX 01 00:21:47
  TRACK 31 AUDIO
    TITLE "0:"
    INDEX 01 00:22:64
  TRACK 32 AUDIO
    TITLE "8:cjc026_06834"
    INDEX 01 00:23:14
  TRACK 33 AUDIO
    TITLE "0:"
    INDEX 01 00:24:24
  TRACK 34 AUDIO
    TITLE "9:cjc026_06835"
    INDEX 01 00:24:47
  TRACK 35 AUDIO
    TITLE "0:"
    INDEX 01 00:25:56
  TRACK 36 AUDIO
    TITLE "8:cjc026_06836"
    INDEX 01 00:26:07
  TRACK 37 AUDIO
    TITLE "0:"
    INDEX 01 00:27:26
  TRACK 38 AUDIO
    TITLE "9:cjc026_06837"
    INDEX 01 00:27:49
  TRACK 39 AUDIO
    TITLE "0:"
    INDEX 01 00:28:53
  TRACK 40 AUDIO
    TITLE "8:cjc026_06838"
    INDEX 01 00:29:01
  TRACK 41 AUDIO
    TITLE "0:"
    INDEX 01 00:30:16
  TRACK 42 AUDIO
    TITLE "9:cjc026_06839"
    INDEX 01 00:30:38
  TRACK 43 AUDIO
    TITLE "0:"
    INDEX 01 00:31:16
  TRACK 44 AUDIO
    TITLE "8:cjc026_06840"
    INDEX 01 00:31:47
  TRACK 45 AUDIO
    TITLE "0:"
    INDEX 01 00:32:52
  TRACK 46 AUDIO
    TITLE "9:cjc026_06841"
    INDEX 01 00:33:01
  TRACK 47 AUDIO
    TITLE "0:"
    INDEX 01 00:34:12
  TRACK 48 AUDIO
    TITLE "8:cjc026_06842"
    INDEX 01 00:34:36
  TRACK 49 AUDIO
    TITLE "0:"
    INDEX 01 00:35:31
  TRACK 50 AUDIO
    TITLE "9:cjc026_06843"
    INDEX 01 00:35:53
  TRACK 51 AUDIO
    TITLE "0:"
    INDEX 01 00:36:72
  TRACK 52 AUDIO
    TITLE "8:cjc026_06844"
    INDEX 01 00:37:18
  TRACK 53 AUDIO
    TITLE "0:"
    INDEX 01 00:38:51
  TRACK 54 AUDIO
    TITLE "9:cjc026_06845"
    INDEX 01 00:39:00
  TRACK 55 AUDIO
    TITLE "0:"
    INDEX 01 00:40:09
  TRACK 56 AUDIO
    TITLE "8:cjc026_06846"
    INDEX 01 00:40:34
  TRACK 57 AUDIO
    TITLE "0:"
    INDEX 01 00:41:32
  TRACK 58 AUDIO
    TITLE "9:cjc026_06847"
    INDEX 01 00:41:55
  TRACK 59 AUDIO
    TITLE "0:"
    INDEX 01 00:42:49
  TRACK 60 AUDIO
    TITLE "8:cjc026_06848"
    INDEX 01 00:42:74
  TRACK 61 AUDIO
    TITLE "0:"
    INDEX 01 00:43:68
  TRACK 62 AUDIO
    TITLE "9:cjc026_06849"
    INDEX 01 00:44:16
  TRACK 63 AUDIO
    TITLE "0:"
    INDEX 01 00:45:22
  TRACK 64 AUDIO
    TITLE "8:cjc026_06850"
    INDEX 01 00:45:45
  TRACK 65 AUDIO
    TITLE "0:"
    INDEX 01 00:46:53
